<svg width="62" height="120" viewBox="0 0 62 120" fill="none" xmlns="http://www.w3.org/2000/svg">
<path d="M61.9547 5.86467L51.4325 5.86467M56.6936 11.7293L56.6936 -2.56353e-07L56.6936 11.7293Z" stroke="#E4616F" stroke-miterlimit="10"/>
<path d="M36.0538 5.86467L25.5316 5.86467M30.7927 11.7293L30.7927 -2.56353e-07L30.7927 11.7293Z" stroke="#E4616F" stroke-miterlimit="10"/>
<path d="M10.9625 5.86467L0.440247 5.86467M5.70135 11.7293L5.70135 -2.56353e-07L5.70135 11.7293Z" stroke="#E4616F" stroke-miterlimit="10"/>
<path d="M61.9547 5.86467L51.4325 5.86467M56.6936 11.7293L56.6936 -2.56353e-07L56.6936 11.7293Z" stroke="#E4616F" stroke-width="2" stroke-miterlimit="10"/>
<path d="M36.0538 5.86467L25.5316 5.86467M30.7927 11.7293L30.7927 -2.56353e-07L30.7927 11.7293Z" stroke="#E4616F" stroke-width="2" stroke-miterlimit="10"/>
<path d="M10.9625 5.86467L0.440247 5.86467M5.70135 11.7293L5.70135 -2.56353e-07L5.70135 11.7293Z" stroke="#E4616F" stroke-width="2" stroke-miterlimit="10"/>
<path d="M61.9547 32.9323L51.4325 32.9323M56.6936 38.797L56.6936 27.0676L56.6936 38.797Z" stroke="#E4616F" stroke-miterlimit="10"/>
<path d="M36.0538 32.9323L25.5316 32.9323M30.7927 38.797L30.7927 27.0676L30.7927 38.797Z" stroke="#E4616F" stroke-miterlimit="10"/>
<path d="M10.9625 32.9323L0.440247 32.9323M5.70135 38.797L5.70135 27.0676L5.70135 38.797Z" stroke="#E4616F" stroke-miterlimit="10"/>
<path d="M61.9547 32.9323L51.4325 32.9323M56.6936 38.797L56.6936 27.0676L56.6936 38.797Z" stroke="#E4616F" stroke-width="2" stroke-miterlimit="10"/>
<path d="M36.0538 32.9323L25.5316 32.9323M30.7927 38.797L30.7927 27.0676L30.7927 38.797Z" stroke="#E4616F" stroke-width="2" stroke-miterlimit="10"/>
<path d="M10.9625 32.9323L0.440247 32.9323M5.70135 38.797L5.70135 27.0676L5.70135 38.797Z" stroke="#E4616F" stroke-width="2" stroke-miterlimit="10"/>
<path d="M36.0538 59.9999L25.5316 59.9999M30.7927 65.8646L30.7927 54.1353L30.7927 65.8646Z" stroke="#E4616F" stroke-miterlimit="10"/>
<path d="M10.9625 59.9999L0.440247 59.9999M5.70135 65.8646L5.70135 54.1353L5.70135 65.8646Z" stroke="#E4616F" stroke-miterlimit="10"/>
<path d="M36.0538 59.9999L25.5316 59.9999M30.7927 65.8646L30.7927 54.1353L30.7927 65.8646Z" stroke="#E4616F" stroke-width="2" stroke-miterlimit="10"/>
<path d="M10.9625 59.9999L0.440247 59.9999M5.70135 65.8646L5.70135 54.1353L5.70135 65.8646Z" stroke="#E4616F" stroke-width="2" stroke-miterlimit="10"/>
<path d="M36.0538 87.0678L25.5316 87.0678M30.7927 92.9325L30.7927 81.2031L30.7927 92.9325Z" stroke="#E4616F" stroke-miterlimit="10"/>
<path d="M10.9625 87.0678L0.440247 87.0678M5.70135 92.9325L5.70135 81.2031L5.70135 92.9325Z" stroke="#E4616F" stroke-miterlimit="10"/>
<path d="M36.0538 87.0678L25.5316 87.0678M30.7927 92.9325L30.7927 81.2031L30.7927 92.9325Z" stroke="#E4616F" stroke-width="2" stroke-miterlimit="10"/>
<path d="M10.9625 87.0678L0.440247 87.0678M5.70135 92.9325L5.70135 81.2031L5.70135 92.9325Z" stroke="#E4616F" stroke-width="2" stroke-miterlimit="10"/>
<path d="M36.0538 114.135L25.5316 114.135M30.7927 120L30.7927 108.271L30.7927 120Z" stroke="#E4616F" stroke-miterlimit="10"/>
<path d="M10.9625 114.135L0.440247 114.135M5.70135 120L5.70135 108.271L5.70135 120Z" stroke="#E4616F" stroke-miterlimit="10"/>
<path d="M36.0538 114.135L25.5316 114.135M30.7927 120L30.7927 108.271L30.7927 120Z" stroke="#E4616F" stroke-width="2" stroke-miterlimit="10"/>
<path d="M10.9625 114.135L0.440247 114.135M5.70135 120L5.70135 108.271L5.70135 120Z" stroke="#E4616F" stroke-width="2" stroke-miterlimit="10"/>
</svg>
