<svg width="80" height="80" viewBox="0 0 80 80" fill="none" xmlns="http://www.w3.org/2000/svg">
<path d="M40 3.33325L10 16.6666V36.6666C10 55.1666 22.8 72.4666 40 76.6666C57.2 72.4666 70 55.1666 70 36.6666V16.6666L40 3.33325ZM40 23.3333C44.6667 23.3333 49.3333 26.9999 49.3333 31.6666V36.6666C51.3333 36.6666 53.3333 38.6666 53.3333 40.9999V52.6666C53.3333 54.6666 51.3333 56.6666 49 56.6666H30.6667C28.6667 56.6666 26.6667 54.6666 26.6667 52.3333V40.6666C26.6667 38.6666 28.6667 36.6666 30.6667 36.6666V31.6666C30.6667 26.9999 35.3333 23.3333 40 23.3333ZM40 27.3333C37.3333 27.3333 35 28.9999 35 31.6666V36.6666H45V31.6666C45 28.9999 42.6667 27.3333 40 27.3333Z" fill="url(#paint0_linear_51_9227)"/>
<defs>
<linearGradient id="paint0_linear_51_9227" x1="40" y1="3.33325" x2="40" y2="76.6666" gradientUnits="userSpaceOnUse">
<stop stop-color="#E4616F"/>
<stop offset="1" stop-color="#FAD02C"/>
</linearGradient>
</defs>
</svg>
