<svg width="147" height="148" viewBox="0 0 147 148" fill="none" xmlns="http://www.w3.org/2000/svg">
<path d="M75.5944 7.93762C74.0303 9.37559 71.4499 9.1267 69.8469 7.38326C68.244 5.63982 68.2123 3.04756 69.7763 1.6096C71.3403 0.17163 73.9208 0.420526 75.5237 2.16396C77.1365 3.91816 77.1584 6.49965 75.5944 7.93762ZM92.9284 21.0942C91.3255 19.3508 88.745 19.1019 87.181 20.5399C85.617 21.9778 85.6487 24.5701 87.2516 26.3135C88.8546 28.057 91.4351 28.3059 92.9991 26.8679C94.5631 25.4299 94.5413 22.8484 92.9284 21.0942ZM110.333 40.0245C108.73 38.2811 106.15 38.0322 104.586 39.4701C103.022 40.9081 103.053 43.5004 104.656 45.2438C106.259 46.9872 108.84 47.2361 110.404 45.7982C111.978 44.371 111.946 41.7787 110.333 40.0245ZM127.748 58.9655C126.145 57.2221 123.564 56.9732 122 58.4112C120.436 59.8491 120.468 62.4414 122.071 64.1848C123.674 65.9283 126.254 66.1772 127.818 64.7392C129.382 63.3012 129.351 60.709 127.748 58.9655ZM145.152 77.8958C143.55 76.1524 140.969 75.9035 139.405 77.3414C137.841 78.7794 137.873 81.3717 139.476 83.1151C141.079 84.8585 143.659 85.1074 145.223 83.6695C146.787 82.2315 146.755 79.6392 145.152 77.8958ZM58.5416 17.7775C56.9387 16.0341 54.3582 15.7852 52.7942 17.2231C51.2302 18.6611 51.2619 21.2534 52.8648 22.9968C54.4678 24.7402 57.0483 24.9891 58.6123 23.5511C60.1763 22.1132 60.1545 19.5317 58.5416 17.7775ZM75.9463 36.7078C74.3434 34.9643 71.7629 34.7154 70.1989 36.1534C68.6349 37.5914 68.6666 40.1836 70.2695 41.9271C71.8725 43.6705 74.453 43.9194 76.017 42.4814C77.581 41.0435 77.5592 38.462 75.9463 36.7078ZM93.351 55.638C91.7481 53.8946 89.1676 53.6457 87.6036 55.0837C86.0396 56.5216 86.0713 59.1139 87.6743 60.8573C89.2772 62.6008 91.8577 62.8497 93.4217 61.4117C94.9956 59.9845 94.9639 57.3922 93.351 55.638ZM110.766 74.5791C109.163 72.8356 106.582 72.5867 105.018 74.0247C103.454 75.4627 103.486 78.0549 105.089 79.7984C106.692 81.5418 109.272 81.7907 110.836 80.3527C112.4 78.9148 112.369 76.3225 110.766 74.5791ZM128.17 93.5093C126.567 91.7659 123.987 91.517 122.423 92.955C120.859 94.3929 120.891 96.9852 122.494 98.7286C124.097 100.472 126.677 100.721 128.241 99.283C129.805 97.845 129.773 95.2528 128.17 93.5093ZM41.5499 33.3998C39.947 31.6564 37.3665 31.4075 35.8025 32.8455C34.2385 34.2834 34.2702 36.8757 35.8732 38.6191C37.4761 40.3626 40.0566 40.6115 41.6206 39.1735C43.1942 37.7267 43.1628 35.154 41.5499 33.3998ZM58.9546 52.3301C57.3517 50.5867 54.7712 50.3378 53.2072 51.7758C51.6432 53.2137 51.6749 55.806 53.2779 57.5494C54.8808 59.2928 57.4613 59.5417 59.0253 58.1038C60.5989 56.6569 60.5675 54.0843 58.9546 52.3301ZM76.3594 71.2604C74.7564 69.517 72.1759 69.2681 70.6119 70.706C69.0479 72.144 69.0796 74.7363 70.6826 76.4797C72.2855 78.2231 74.866 78.472 76.43 77.0341C78.0135 75.598 77.9722 73.0146 76.3594 71.2604ZM93.774 90.2014C92.171 88.458 89.5905 88.2091 88.0265 89.6471C86.4625 91.085 86.4942 93.6773 88.0972 95.4207C89.7001 97.1642 92.2806 97.4131 93.8446 95.9751C95.4183 94.5282 95.3769 91.9449 93.774 90.2014ZM111.179 109.132C109.576 107.388 106.995 107.139 105.431 108.577C103.867 110.015 103.899 112.608 105.502 114.351C107.105 116.094 109.685 116.343 111.249 114.905C112.823 113.459 112.782 110.875 111.179 109.132ZM24.5678 49.0134C22.9649 47.2699 20.3844 47.021 18.8204 48.459C17.2564 49.897 17.2882 52.4892 18.8911 54.2326C20.4941 55.9761 23.0745 56.225 24.6385 54.787C26.2121 53.3402 26.1807 50.7676 24.5678 49.0134ZM41.9726 67.9436C40.3696 66.2002 37.7891 65.9513 36.2251 67.3893C34.6611 68.8273 34.6929 71.4195 36.2958 73.1629C37.8988 74.9063 40.4792 75.1553 42.0432 73.7173C43.6169 72.2705 43.5854 69.6978 41.9726 67.9436ZM59.3773 86.8739C57.7743 85.1305 55.1938 84.8816 53.6298 86.3196C52.0658 87.7575 52.0976 90.3497 53.7005 92.0932C55.3035 93.8366 57.8839 94.0855 59.4479 92.6476C61.0315 91.2115 60.9901 88.6281 59.3773 86.8739ZM76.7919 105.815C75.1889 104.072 72.6085 103.823 71.0444 105.261C69.4804 106.699 69.5122 109.291 71.1151 111.034C72.7181 112.778 75.2985 113.027 76.8625 111.589C78.4362 110.142 78.3948 107.558 76.7919 105.815ZM94.1966 124.745C92.5936 123.002 90.0132 122.753 88.4491 124.191C86.8851 125.629 86.9169 128.221 88.5198 129.964C90.1228 131.708 92.7032 131.957 94.2672 130.519C95.8409 129.072 95.7995 126.489 94.1966 124.745ZM7.58582 64.6268C5.98288 62.8834 3.4024 62.6345 1.83839 64.0725C0.274381 65.5104 0.306098 68.1027 1.90903 69.8461C3.51197 71.5896 6.09244 71.8385 7.65645 70.4005C9.22046 68.9625 9.19865 66.381 7.58582 64.6268ZM24.9905 83.5571C23.3876 81.8137 20.8071 81.5648 19.2431 83.0028C17.6791 84.4407 17.7108 87.033 19.3137 88.7764C20.9167 90.5198 23.4972 90.7687 25.0612 89.3308C26.6252 87.8928 26.6034 85.3113 24.9905 83.5571ZM42.3952 102.487C40.7923 100.744 38.2118 100.495 36.6478 101.933C35.0838 103.371 35.1155 105.963 36.7184 107.707C38.3214 109.45 40.9019 109.699 42.4659 108.261C44.0299 106.823 44.0081 104.242 42.3952 102.487ZM59.8098 121.428C58.2069 119.685 55.6264 119.436 54.0624 120.874C52.4984 122.312 52.5301 124.904 54.1331 126.648C55.736 128.391 58.3165 128.64 59.8805 127.202C61.4445 125.764 61.4128 123.172 59.8098 121.428ZM77.2145 140.359C75.6116 138.615 73.0311 138.366 71.4671 139.804C69.9031 141.242 69.9348 143.835 71.5378 145.578C73.1407 147.321 75.7212 147.57 77.2852 146.132C78.8492 144.694 78.8175 142.102 77.2145 140.359Z" fill="#E4616F"/>
</svg>
